<?xml version="1.0" encoding="UTF-8" standalone="no"?>
<!-- Created with Inkscape (http://www.inkscape.org/) -->

<svg
   width="210mm"
   height="297mm"
   viewBox="0 0 210 297"
   version="1.1"
   id="svg1"
   xml:space="preserve"
   inkscape:version="1.3 (0e150ed, 2023-07-21)"
   sodipodi:docname="swixt.svg"
   xmlns:inkscape="http://www.inkscape.org/namespaces/inkscape"
   xmlns:sodipodi="http://sodipodi.sourceforge.net/DTD/sodipodi-0.dtd"
   xmlns="http://www.w3.org/2000/svg"
   xmlns:svg="http://www.w3.org/2000/svg"><sodipodi:namedview
     id="namedview1"
     pagecolor="#ffffff"
     bordercolor="#000000"
     borderopacity="0.25"
     inkscape:showpageshadow="2"
     inkscape:pageopacity="0.0"
     inkscape:pagecheckerboard="0"
     inkscape:deskcolor="#d1d1d1"
     inkscape:document-units="mm"
     inkscape:zoom="1"
     inkscape:cx="396"
     inkscape:cy="416"
     inkscape:window-width="1560"
     inkscape:window-height="929"
     inkscape:window-x="222"
     inkscape:window-y="44"
     inkscape:window-maximized="0"
     inkscape:current-layer="layer1" /><defs
     id="defs1" /><g
     inkscape:label="Layer 1"
     inkscape:groupmode="layer"
     id="layer1"><path
       style="fill:#e8e3d5;fill-opacity:1;stroke:#c1c1c1;stroke-width:2.86526;stroke-linecap:round;stroke-linejoin:round;stroke-opacity:1"
       id="path12"
       sodipodi:type="arc"
       sodipodi:cx="99.86483"
       sodipodi:cy="117.66195"
       sodipodi:rx="53.052467"
       sodipodi:ry="52.019585"
       sodipodi:start="0"
       sodipodi:end="6.2826793"
       sodipodi:open="true"
       sodipodi:arc-type="arc"
       d="M 152.9173,117.66195 A 53.052467,52.019585 0 0 1 99.871541,169.68153 53.052467,52.019585 0 0 1 46.812364,117.67511 53.052467,52.019585 0 0 1 99.844696,65.642368 53.052467,52.019585 0 0 1 152.91729,117.63563" /><path
       style="fill:#58a8d9;fill-opacity:1;stroke:#000000;stroke-width:3;stroke-opacity:1"
       id="path1"
       sodipodi:type="arc"
       sodipodi:cx="100.08329"
       sodipodi:cy="127.70942"
       sodipodi:rx="37.35918"
       sodipodi:ry="36.867615"
       sodipodi:start="0"
       sodipodi:end="6.2826793"
       sodipodi:open="true"
       sodipodi:arc-type="arc"
       d="M 137.44247,127.70942 A 37.35918,36.867615 0 0 1 100.08802,164.57703 37.35918,36.867615 0 0 1 62.724111,127.71875 37.35918,36.867615 0 0 1 100.06911,90.841807 37.35918,36.867615 0 0 1 137.44247,127.69076" /><path
       style="fill:#000000;fill-opacity:0;stroke:#325ca7;stroke-width:3;stroke-opacity:1"
       d="m 102.47099,90.692485 0.98314,73.538605"
       id="path2-0" /><path
       style="fill:none;fill-opacity:0;stroke:#325ca7;stroke-width:3;stroke-opacity:1"
       d="m 114.27796,94.005224 c 0,0 -24.381774,30.280606 -50.139948,39.522086"
       id="path3-7"
       sodipodi:nodetypes="cc" /><path
       style="fill:#000000;fill-opacity:0;stroke:#325ca7;stroke-width:3;stroke-opacity:1"
       d="m 127.27976,103.68501 c 0,0 -21.23574,26.93794 -54.859014,48.76357"
       id="path4-1" /><path
       style="fill:#000000;fill-opacity:0;stroke:#325ca7;stroke-width:3;stroke-opacity:1"
       d="m 87.017046,93.373693 c 0,0 23.988534,30.673857 49.943334,39.128837"
       id="path5-9"
       sodipodi:nodetypes="cc" /><path
       style="fill:#000000;fill-opacity:0;stroke:#325ca7;stroke-width:3;stroke-opacity:1"
       d="m 72.67003,103.48007 c 0,0 25.758174,36.37604 56.43204,48.17368"
       id="path6-6" /><path
       style="fill:#000000;fill-opacity:0;stroke:#000000;stroke-width:3;stroke-opacity:1;stroke-linecap:round;stroke-linejoin:round"
       d="m 65.870142,89.072161 3.735917,3.932547"
       id="path7" /><path
       style="fill:#000000;fill-opacity:0;stroke:#000000;stroke-width:3;stroke-linecap:round;stroke-linejoin:round;stroke-opacity:1"
       d="m 58.988187,97.13388 5.70219,1.769646"
       id="path8"
       sodipodi:nodetypes="cc" /><path
       style="fill:#000000;fill-opacity:0;stroke:#000000;stroke-width:3;stroke-linecap:round;stroke-linejoin:round;stroke-opacity:1"
       d="m 126.43135,84.156478 -0.39326,5.11231"
       id="path9" /><path
       style="fill:#000000;fill-opacity:0;stroke:#000000;stroke-width:3;stroke-linecap:round;stroke-linejoin:round;stroke-opacity:1"
       d="m 134.68969,89.465416 -4.3258,4.522428"
       id="path10" /><path
       style="fill:#000000;fill-opacity:0;stroke:#000000;stroke-width:3;stroke-linecap:round;stroke-linejoin:round;stroke-opacity:1"
       d="m 140.78514,97.72376 -6.09545,0.393256"
       id="path11" /><path
       style="fill:none;fill-opacity:1;stroke:#000000;stroke-width:3;stroke-opacity:1"
       id="path1-3"
       sodipodi:type="arc"
       sodipodi:cx="99.87822"
       sodipodi:cy="127.58513"
       sodipodi:rx="37.35918"
       sodipodi:ry="36.867615"
       sodipodi:start="0"
       sodipodi:end="6.2826793"
       sodipodi:open="true"
       sodipodi:arc-type="arc"
       d="M 137.2374,127.58513 A 37.35918,36.867615 0 0 1 99.882946,164.45274 37.35918,36.867615 0 0 1 62.51904,127.59446 37.35918,36.867615 0 0 1 99.864042,90.717517 37.35918,36.867615 0 0 1 137.2374,127.56647" /><path
       style="fill:#000000;fill-opacity:0;stroke:#000000;stroke-width:3;stroke-opacity:1"
       d="m 112.07755,92.414824 c 0,0 -22.612134,28.707586 -48.370308,37.949066"
       id="path3" /><path
       style="fill:#000000;fill-opacity:0;stroke:#000000;stroke-width:3;stroke-opacity:1"
       d="m 125.84146,101.06642 c 0,0 -21.23574,26.93794 -54.85901,48.76357"
       id="path4" /><path
       style="fill:#000000;fill-opacity:0;stroke:#000000;stroke-width:3;stroke-opacity:1"
       d="m 73.341978,100.67317 c 0,0 25.758174,36.37605 56.432032,48.17369"
       id="path6" /><path
       style="fill:#000000;fill-opacity:0;stroke:#000000;stroke-width:3;stroke-opacity:1"
       d="m 89.465416,92.021569 c 0,0 21.629004,29.494091 47.583804,37.949071"
       id="path5" /><path
       style="fill:#000000;fill-opacity:0;stroke:#000000;stroke-width:3;stroke-opacity:1"
       d="m 99.493407,90.448552 0.983133,73.538608"
       id="path2" /></g></svg>
